<svg width="50" height="50" viewBox="0 0 50 50" fill="none" xmlns="http://www.w3.org/2000/svg">
<rect x="0.5" y="0.5" width="49" height="49" rx="3.5" fill="#1339FF" stroke="#1339FF"/>
<path d="M31.0001 29.1509C30.5961 29.1508 30.1963 29.2305 29.8247 29.3852C29.4532 29.5399 29.1177 29.7665 28.8385 30.0511L21.9018 26.246C22.0362 25.7541 22.0362 25.2364 21.9018 24.7445L28.8385 20.9394C29.3436 21.4499 30.0223 21.7634 30.7475 21.8211C31.4727 21.8788 32.1946 21.6768 32.778 21.2528C33.3613 20.8288 33.7661 20.212 33.9165 19.518C34.0668 18.8239 33.9525 18.1002 33.5949 17.4824C33.2372 16.8646 32.6609 16.3952 31.9737 16.162C31.2865 15.9288 30.5357 15.9479 29.862 16.2157C29.1882 16.4835 28.6377 16.9816 28.3136 17.6167C27.9894 18.2518 27.914 18.9803 28.1012 19.6658L21.1645 23.4709C20.7502 23.0497 20.2161 22.759 19.6309 22.6362C19.0456 22.5134 18.4361 22.5641 17.8807 22.7818C17.3253 22.9995 16.8494 23.3742 16.5143 23.8578C16.1791 24.3413 16 24.9116 16 25.4952C16 26.0789 16.1791 26.6491 16.5143 27.1327C16.8494 27.6163 17.3253 27.991 17.8807 28.2087C18.4361 28.4264 19.0456 28.4771 19.6309 28.3543C20.2161 28.2315 20.7502 27.9408 21.1645 27.5196L28.1012 31.3247C27.9404 31.915 27.9732 32.5396 28.195 33.1109C28.4168 33.6821 28.8165 34.1713 29.338 34.5098C29.8594 34.8483 30.4765 35.0191 31.1027 34.9983C31.7288 34.9775 32.3325 34.766 32.8291 34.3936C33.3257 34.0213 33.6902 33.5066 33.8716 32.922C34.0529 32.3373 34.042 31.712 33.8402 31.1337C33.6385 30.5555 33.2561 30.0533 32.7467 29.6977C32.2374 29.3421 31.6266 29.1509 31.0001 29.1509Z" fill="white"/>
</svg>
